<svg width="12" height="15" viewBox="0 0 12 15" fill="none" xmlns="http://www.w3.org/2000/svg">
<path d="M6 9.25C7.245 9.25 8.2425 8.245 8.2425 7L8.25 2.5C8.25 1.255 7.245 0.25 6 0.25C4.755 0.25 3.75 1.255 3.75 2.5V7C3.75 8.245 4.755 9.25 6 9.25ZM5.1 2.425C5.1 1.93 5.505 1.525 6 1.525C6.495 1.525 6.9 1.93 6.9 2.425L6.8925 7.075C6.8925 7.57 6.495 7.975 6 7.975C5.505 7.975 5.1 7.57 5.1 7.075V2.425ZM9.975 7C9.975 9.25 8.07 10.825 6 10.825C3.93 10.825 2.025 9.25 2.025 7H0.75C0.75 9.5575 2.79 11.6725 5.25 12.04V14.5H6.75V12.04C9.21 11.68 11.25 9.565 11.25 7H9.975Z" fill="#9D9D9D"/>
</svg>
